<svg xmlns="http://www.w3.org/2000/svg" viewBox="0 0 314.79 262.46"><g id="portfolio"><path d="M562.71,396.44H540.58L536,384.67l-4.49,4.48c-15.51,15.48-45.37,13.45-59-6.11-7.53-10.76-10.39-22.76-10.38-35.64q0-76.51.05-153a70,70,0,0,1,6.09-29C476.92,146,493.09,136,514.41,137c25,1.19,42.15,16.55,46.88,42.34a105.13,105.13,0,0,1,1.56,16.71c.23,11.82.07,23.64.07,35.7H525.14c0-1.49,0-2.92,0-4.36-.15-13.34,0-26.69-.57-40-.21-5.6-2.23-10.93-8.28-13.07a10.64,10.64,0,0,0-14,6.52A31.4,31.4,0,0,0,500,191.73q-.21,77.82,0,155.65a33.72,33.72,0,0,0,2.58,11.9c1.79,4.54,5.62,6.89,10.73,6.53a10.26,10.26,0,0,0,9.65-7.6,37.67,37.67,0,0,0,2-10.56c.23-14.84.11-29.68.1-44.52a22.73,22.73,0,0,0-.32-2.52H510.34V268.88h52.37Z" transform="translate(-462.08 -136.95)"/><path d="M680.37,204.93l-36.78,3.51c-.49-6.09-.62-11.94-1.55-17.66a51.38,51.38,0,0,0-3.74-12c-1.9-4.33-5.27-7.44-10.4-7.25-5.61.21-8.9,3.75-10.46,8.76-3.31,10.68-3.8,21.61,1.19,31.75a262.44,262.44,0,0,0,17,29.39C648,260,661,278.13,671,298.18c11.34,22.77,12.36,46.23,4.15,70-6.64,19.23-20.78,29.44-41,30.63a90.65,90.65,0,0,1-22.32-1.29c-17.9-3.5-28.73-15.12-34-32.16-4.08-13.11-4.92-26.64-4.7-40.87l36.63-3.35c.31,5.66.18,11.18,1,16.54a97.21,97.21,0,0,0,4.33,17.67c2.35,6.58,7.52,9.71,13.87,9.29s9.87-4.49,11.69-10.08c3.55-10.87,3.72-21.73-.55-32.56-4.67-11.81-11.85-22.14-18.69-32.72-10.75-16.63-22-33-31.63-50.27-8.33-14.92-12.86-31.33-11.38-48.85.81-9.53,2.84-18.71,7.22-27.27,9.13-17.85,24.19-25.95,43.83-25.83a70.41,70.41,0,0,1,16.6,2.39c11.45,2.87,19.67,10.21,25,20.48C678.29,173.88,680.14,189,680.37,204.93Z" transform="translate(-462.08 -136.95)"/><path d="M690.84,396.28V140h86v38.56H728.71v67.32h34.55v41.31H728.8v70.44h48.06v38.66Z" transform="translate(-462.08 -136.95)"/></g></svg>